<svg width="672.5" height="896.5" viewBox="0 0 672.5 896.5" xmlns="http://www.w3.org/2000/svg">
<style>
    svg {
        font-family: SFMono-Regular,Consolas,Liberation Mono,Menlo,monospace;
        font-size: 14px;
        font-kerning: normal;
        text-rendering: optimizeLegibility;
        fill: #24292e;
    }

    rect {
        fill: #f6f8fa;
    }

    .held {
        fill: #fdd;
    }
</style>
<rect rx="6" ry="6" x="29.5" y="24.5" width="55" height="45" class="" />
<text text-anchor="middle" dominant-baseline="middle" x="57.0" y="47.0">/</text>
<rect rx="6" ry="6" x="88.5" y="24.5" width="55" height="45" class="" />
<text text-anchor="middle" dominant-baseline="middle" x="116.0" y="47.0">w</text>
<rect rx="6" ry="6" x="147.5" y="24.5" width="55" height="45" class="" />
<text text-anchor="middle" dominant-baseline="middle" x="175.0" y="47.0">m</text>
<rect rx="6" ry="6" x="206.5" y="24.5" width="55" height="45" class="" />
<text text-anchor="middle" dominant-baseline="middle" x="234.0" y="47.0">p</text>
<rect rx="6" ry="6" x="265.5" y="24.5" width="55" height="45" class="" />
<text text-anchor="middle" dominant-baseline="middle" x="293.0" y="47.0">q</text>
<rect rx="6" ry="6" x="29.5" y="73.5" width="55" height="45" class="" />
<text text-anchor="middle" dominant-baseline="middle" x="57.0" y="96.0">r/◆</text>
<rect rx="6" ry="6" x="88.5" y="73.5" width="55" height="45" class="" />
<text text-anchor="middle" dominant-baseline="middle" x="116.0" y="96.0">s/⎇</text>
<rect rx="6" ry="6" x="147.5" y="73.5" width="55" height="45" class="" />
<text text-anchor="middle" dominant-baseline="middle" x="175.0" y="96.0">n/⎈</text>
<rect rx="6" ry="6" x="206.5" y="73.5" width="55" height="45" class="" />
<text text-anchor="middle" dominant-baseline="middle" x="234.0" y="96.0">t/⇧</text>
<rect rx="6" ry="6" x="265.5" y="73.5" width="55" height="45" class="" />
<text text-anchor="middle" dominant-baseline="middle" x="293.0" y="96.0">g</text>
<rect rx="6" ry="6" x="29.5" y="122.5" width="55" height="45" class="" />
<text text-anchor="middle" dominant-baseline="middle" x="57.0" y="145.0">x</text>
<rect rx="6" ry="6" x="88.5" y="122.5" width="55" height="45" class="" />
<text text-anchor="middle" dominant-baseline="middle" x="116.0" y="145.0">c</text>
<rect rx="6" ry="6" x="147.5" y="122.5" width="55" height="45" class="" />
<text text-anchor="middle" dominant-baseline="middle" x="175.0" y="145.0">f</text>
<rect rx="6" ry="6" x="206.5" y="122.5" width="55" height="45" class="" />
<text text-anchor="middle" dominant-baseline="middle" x="234.0" y="145.0">d</text>
<rect rx="6" ry="6" x="265.5" y="122.5" width="55" height="45" class="" />
<text text-anchor="middle" dominant-baseline="middle" x="293.0" y="145.0">b</text>
<rect rx="6" ry="6" x="352.0" y="24.5" width="55" height="45" class="" />
<text text-anchor="middle" dominant-baseline="middle" x="379.5" y="47.0">z</text>
<rect rx="6" ry="6" x="411.0" y="24.5" width="55" height="45" class="" />
<text text-anchor="middle" dominant-baseline="middle" x="438.5" y="47.0">k</text>
<rect rx="6" ry="6" x="470.0" y="24.5" width="55" height="45" class="" />
<text text-anchor="middle" dominant-baseline="middle" x="497.5" y="47.0">,</text>
<rect rx="6" ry="6" x="529.0" y="24.5" width="55" height="45" class="" />
<text text-anchor="middle" dominant-baseline="middle" x="556.5" y="47.0">.</text>
<rect rx="6" ry="6" x="588.0" y="24.5" width="55" height="45" class="" />
<text text-anchor="middle" dominant-baseline="middle" x="615.5" y="47.0">;</text>
<rect rx="6" ry="6" x="352.0" y="73.5" width="55" height="45" class="" />
<text text-anchor="middle" dominant-baseline="middle" x="379.5" y="96.0">v</text>
<rect rx="6" ry="6" x="411.0" y="73.5" width="55" height="45" class="" />
<text text-anchor="middle" dominant-baseline="middle" x="438.5" y="96.0">h/⇧</text>
<rect rx="6" ry="6" x="470.0" y="73.5" width="55" height="45" class="" />
<text text-anchor="middle" dominant-baseline="middle" x="497.5" y="96.0">a/⎈</text>
<rect rx="6" ry="6" x="529.0" y="73.5" width="55" height="45" class="" />
<text text-anchor="middle" dominant-baseline="middle" x="556.5" y="96.0">i/⎇</text>
<rect rx="6" ry="6" x="588.0" y="73.5" width="55" height="45" class="" />
<text text-anchor="middle" dominant-baseline="middle" x="615.5" y="96.0">o/◆</text>
<rect rx="6" ry="6" x="352.0" y="122.5" width="55" height="45" class="" />
<text text-anchor="middle" dominant-baseline="middle" x="379.5" y="145.0">j</text>
<rect rx="6" ry="6" x="411.0" y="122.5" width="55" height="45" class="" />
<text text-anchor="middle" dominant-baseline="middle" x="438.5" y="145.0">l</text>
<rect rx="6" ry="6" x="470.0" y="122.5" width="55" height="45" class="" />
<text text-anchor="middle" dominant-baseline="middle" x="497.5" y="145.0">u</text>
<rect rx="6" ry="6" x="529.0" y="122.5" width="55" height="45" class="" />
<text text-anchor="middle" dominant-baseline="middle" x="556.5" y="145.0">y</text>
<rect rx="6" ry="6" x="588.0" y="122.5" width="55" height="45" class="" />
<text text-anchor="middle" dominant-baseline="middle" x="615.5" y="145.0">'</text>
<rect rx="6" ry="6" x="147.5" y="171.5" width="55" height="45" class="" />
<text text-anchor="middle" dominant-baseline="middle" x="175.0" y="194.0">Esc/MD</text>
<rect rx="6" ry="6" x="206.5" y="171.5" width="55" height="45" class="" />
<text text-anchor="middle" dominant-baseline="middle" x="234.0" y="194.0">Spc/NV</text>
<rect rx="6" ry="6" x="265.5" y="171.5" width="55" height="45" class="" />
<text text-anchor="middle" dominant-baseline="middle" x="293.0" y="194.0">⌫/MS</text>
<rect rx="6" ry="6" x="352.0" y="171.5" width="55" height="45" class="" />
<text text-anchor="middle" dominant-baseline="middle" x="379.5" y="194.0">↵/Sym</text>
<rect rx="6" ry="6" x="411.0" y="171.5" width="55" height="45" class="" />
<text text-anchor="middle" dominant-baseline="middle" x="438.5" y="194.0">e/NUM</text>
<rect rx="6" ry="6" x="470.0" y="171.5" width="55" height="45" class="" />
<text text-anchor="middle" dominant-baseline="middle" x="497.5" y="194.0">↹/FUN</text>
</svg>
